<svg width="7" height="12" viewBox="0 0 7 12" fill="none" xmlns="http://www.w3.org/2000/svg">
<path d="M6.88799 5.97257C6.88864 6.08582 6.86694 6.19809 6.82411 6.30294C6.78129 6.40779 6.71819 6.50315 6.63843 6.58356L1.47508 11.7469C1.31303 11.909 1.09325 12 0.86408 12C0.634912 12 0.41513 11.909 0.253083 11.7469C0.0910367 11.5849 -2.77529e-08 11.3651 -3.77701e-08 11.1359C-4.77874e-08 10.9068 0.0910367 10.687 0.253083 10.5249L4.81404 5.97257L0.261688 1.42021C0.120706 1.25559 0.0470368 1.04383 0.0554024 0.827243C0.063768 0.610661 0.153553 0.405212 0.306813 0.25195C0.460074 0.0986899 0.665523 0.00890678 0.882105 0.000541618C1.09869 -0.00782453 1.31045 0.0658438 1.47508 0.206825L6.63843 5.37018C6.79741 5.53047 6.88704 5.74681 6.88799 5.97257Z" fill="#74778B"/>
</svg>
