<svg width="10" height="6" viewBox="0 0 10 6" fill="none" xmlns="http://www.w3.org/2000/svg">
<path d="M5.02307 5.74023C4.92869 5.74078 4.83512 5.72269 4.74775 5.687C4.66037 5.65131 4.5809 5.59872 4.51389 5.53226L0.210911 1.22928C0.0758672 1.09424 0 0.911078 0 0.720097C0 0.529115 0.0758672 0.345956 0.210911 0.210911C0.345956 0.0758672 0.529115 0 0.720097 0C0.911078 0 1.09424 0.0758672 1.22928 0.210911L5.02307 4.01187L8.81686 0.218083C8.95405 0.100593 9.13053 0.0391994 9.31102 0.046171C9.49151 0.0531427 9.66273 0.127966 9.79045 0.255689C9.91818 0.383412 9.993 0.554626 9.99997 0.735119C10.0069 0.915611 9.94555 1.09209 9.82806 1.22928L5.52508 5.53226C5.39151 5.66475 5.21121 5.73944 5.02307 5.74023Z" fill="#74778B"/>
</svg>
